<?xml version="1.0" encoding="utf-8"?>
<!-- Generator: Adobe Illustrator 16.0.4, SVG Export Plug-In . SVG Version: 6.00 Build 0)  -->
<!DOCTYPE svg PUBLIC "-//W3C//DTD SVG 1.1 Tiny//EN" "http://www.w3.org/Graphics/SVG/1.1/DTD/svg11-tiny.dtd">
<svg version="1.1" baseProfile="tiny" id="Layer_1" xmlns="http://www.w3.org/2000/svg" xmlns:xlink="http://www.w3.org/1999/xlink"
	 x="0px" y="0px" width="1152px" height="1152px" viewBox="0 0 1152 1152" xml:space="preserve">
<polygon points="837.753,293.714 734.631,293.714 609.822,400.682 609.822,454.55 886.249,454.55 886.249,388.682 730.945,388.682 
	"/>
<polygon points="730.945,264.73 886.249,264.73 886.249,198.86 609.822,198.86 609.822,264.73 702.527,264.73 "/>
<polygon points="271.582,388.569 271.582,454.55 552.408,454.55 552.408,388.682 "/>
<polygon points="271.582,293.714 271.685,359.576 474.527,359.584 474.527,293.714 "/>
<rect x="271.582" y="198.86" width="280.826" height="65.87"/>
<path d="M968.483,1132.483H183.517c-90.43,0-164-73.57-164-164V183.517c0-90.43,73.57-164,164-164h784.967
	c90.43,0,164,73.57,164,164v784.966C1132.483,1058.913,1058.913,1132.483,968.483,1132.483z M183.517,59.517
	c-32.962,0-64.058,12.942-87.558,36.442s-36.442,54.595-36.442,87.558v784.966c0,32.963,12.942,64.058,36.442,87.558
	s54.596,36.442,87.558,36.442h784.967c32.963,0,64.058-12.942,87.558-36.442s36.442-54.595,36.442-87.558V183.517
	c0-32.962-12.942-64.058-36.442-87.558s-54.595-36.442-87.558-36.442H183.517z"/>
<g>
	<circle cx="156.034" cy="576" r="39.094"/>
	<circle cx="995.964" cy="576" r="39.095"/>
</g>
<g>
	<path d="M365.806,708.879c58.272,0,91.427-25.119,99.491-75.327h-74.501c-4.498,11.545-12.817,17.343-24.99,17.343
		c-19.33,0-28.992-14.494-28.992-43.486c0-5.23,0.319-9.982,0.948-14.269h-72.864c-0.361,4.583-0.564,9.325-0.564,14.269
		C264.333,675.058,298.156,708.879,365.806,708.879z"/>
	<path d="M361.68,564.155v0.011c1.325-0.159,2.695-0.248,4.126-0.248c11.216,0,19.157,4.928,23.857,14.729h75.186
		c-8.787-48.465-41.791-72.713-99.043-72.713c-51.234,0-83.048,19.419-95.48,58.221H361.68z"/>
	<path d="M373.055,750.195H271.582v58.041h72.48v-0.057h28.992c9.663,0,14.496,4.835,14.496,14.498
		c0,9.665-4.833,14.494-14.496,14.494H361.68v0.049h-90.098v115.92h72.48v-57.984h28.992c57.984,0,86.977-24.157,86.977-72.479
		C460.031,774.358,431.039,750.195,373.055,750.195z"/>
	<path d="M583.248,708.879c51.139,0,82.935-19.345,95.415-58.006H584.15c-0.301,0.008-0.597,0.021-0.902,0.021
		c-19.331,0-28.993-14.494-28.993-43.486V505.934h-72.48v101.475C481.775,675.058,515.598,708.879,583.248,708.879z"/>
	<path d="M684.139,621.889c0.373-4.648,0.582-9.459,0.582-14.48V505.934h-72.48v101.475c0,5.316-0.328,10.14-0.979,14.48H684.139z"
		/>
	<path d="M662.977,822.678c0-48.319-28.992-72.482-86.977-72.482H474.527v58.041h72.481v-0.057H576
		c9.663,0,14.496,4.835,14.496,14.498c0,9.665-4.833,14.494-14.496,14.494h-11.956v0.049h-89.517v115.92h72.481v-57.984h18.701
		l24.787,57.984h72.48l-30.152-70.306C652.925,871.143,662.977,851.09,662.977,822.678z"/>
	<polygon points="699.217,505.934 699.217,563.918 757.2,563.918 757.2,564.155 829.68,564.155 829.68,563.918 887.666,563.918 
		887.666,505.934 	"/>
	<rect x="757.2" y="593.139" width="72.479" height="115.74"/>
	<path d="M778.946,750.195c-51.156,0-82.954,19.358-95.428,58.041h93.452c0.647-0.035,1.305-0.057,1.976-0.057
		s1.327,0.021,1.976,0.057h0.659v0.049c17.565,1.289,26.357,15.745,26.357,43.385c0,28.992-9.666,43.486-28.992,43.486
		c-19.331,0-28.992-14.494-28.992-43.486c0-5.303,0.327-10.116,0.974-14.449h-72.877c-0.371,4.639-0.58,9.439-0.58,14.449
		c0,67.65,33.825,101.471,101.476,101.471c67.646,0,101.471-33.82,101.471-101.471C880.417,784.022,846.592,750.195,778.946,750.195
		z"/>
</g>
</svg>
